# xmcd
#
# Track frame offsets:
# 225
# 15298
# 31544
# 49206
# 65539
# 81091
# 98147
# 120674
# 144371
# 161483
# 177966
# 193902
# 217185
# 241935
# 262914
# 278499
#
# Disc length: 3918 seconds
#
#
# Revision: 0
# Processed by: cddbd v1.5.2PL0 Copyright (c) Steve Scherf et al.
# Submitted via: FreeRIP 2.96 
#
DISCID=d20f4b10
DTITLE=Falco - Hoch wie nie [CD2]
DYEAR=2007
DGENRE=Pop
TTITLE0=Rock Me Amadeus
TTITLE1=Maschine brennt
TTITLE2=America
TTITLE3=Out Of The Dark
TTITLE4=Egoist - Remix
TTITLE5=Brillantin' Brutal'
TTITLE6=Data Da Groove
TTITLE7=Verdammt wir leben noch
TTITLE8=Naked - Original Mix
TTITLE9=Mutter, der Mann mit dem Koks ist da
TTITLE10=Titanic
TTITLE11=Europa
TTITLE12=Coming Home (Jeanny Part 2, Ein Jahr Danach)
TTITLE13=It's All Over Now, Baby Blue
TTITLE14=Tribute To Falco - Radio Mix
TTITLE15=Männer des Westens
EXTD=
EXTT0=
EXTT1=
EXTT2=
EXTT3=
EXTT4=
EXTT5=
EXTT6=
EXTT7=
EXTT8=
EXTT9=
EXTT10=
EXTT11=
EXTT12=
EXTT13=
EXTT14=
EXTT15=
PLAYORDER=
